<mxfile host="app.diagrams.net" modified="2023-04-10T02:27:13.271Z" agent="Mozilla/5.0 (Windows NT 10.0; Win64; x64) AppleWebKit/537.36 (KHTML, like Gecko) Chrome/112.0.0.0 Safari/537.36 Edg/112.0.1722.34" etag="yhDPQt6ccd54rMPcJ_kx" version="21.1.2" type="github">
  <diagram name="第 1 页" id="w6VEcIii28C7c7YlyQqH">
    <mxGraphModel dx="1002" dy="573" grid="1" gridSize="10" guides="1" tooltips="1" connect="1" arrows="1" fold="1" page="1" pageScale="1" pageWidth="827" pageHeight="1169" math="0" shadow="0">
      <root>
        <mxCell id="0" />
        <mxCell id="1" parent="0" />
        <mxCell id="6QCg3QeZ5QWLnk-9Zdk--1" value="" style="rounded=0;whiteSpace=wrap;html=1;fillColor=#dae8fc;strokeColor=#6c8ebf;" vertex="1" parent="1">
          <mxGeometry x="280" y="100" width="70" height="140" as="geometry" />
        </mxCell>
        <mxCell id="6QCg3QeZ5QWLnk-9Zdk--4" value="&lt;font style=&quot;font-size: 14px;&quot;&gt;编译服务&lt;/font&gt;" style="text;html=1;strokeColor=none;fillColor=none;align=center;verticalAlign=middle;whiteSpace=wrap;rounded=0;" vertex="1" parent="1">
          <mxGeometry x="275" y="110" width="80" height="30" as="geometry" />
        </mxCell>
        <mxCell id="6QCg3QeZ5QWLnk-9Zdk--5" value="" style="endArrow=classic;html=1;rounded=0;entryX=0;entryY=1;entryDx=0;entryDy=0;" edge="1" parent="1" target="6QCg3QeZ5QWLnk-9Zdk--4">
          <mxGeometry width="50" height="50" relative="1" as="geometry">
            <mxPoint x="140" y="220" as="sourcePoint" />
            <mxPoint x="440" y="270" as="targetPoint" />
          </mxGeometry>
        </mxCell>
        <mxCell id="6QCg3QeZ5QWLnk-9Zdk--6" value="提交代码&lt;br&gt;(文件)" style="text;html=1;strokeColor=none;fillColor=none;align=center;verticalAlign=middle;whiteSpace=wrap;rounded=0;" vertex="1" parent="1">
          <mxGeometry x="160" y="150" width="70" height="35" as="geometry" />
        </mxCell>
        <mxCell id="6QCg3QeZ5QWLnk-9Zdk--7" value="远端" style="shape=umlActor;verticalLabelPosition=bottom;verticalAlign=top;html=1;outlineConnect=0;" vertex="1" parent="1">
          <mxGeometry x="100" y="190" width="30" height="60" as="geometry" />
        </mxCell>
        <mxCell id="6QCg3QeZ5QWLnk-9Zdk--10" value="形成临时文件" style="rounded=1;whiteSpace=wrap;html=1;fillColor=#d5e8d4;strokeColor=#82b366;" vertex="1" parent="1">
          <mxGeometry x="400" y="105" width="90" height="40" as="geometry" />
        </mxCell>
        <mxCell id="6QCg3QeZ5QWLnk-9Zdk--14" value="" style="endArrow=none;html=1;rounded=0;entryX=0.5;entryY=1;entryDx=0;entryDy=0;" edge="1" parent="1" target="6QCg3QeZ5QWLnk-9Zdk--10">
          <mxGeometry width="50" height="50" relative="1" as="geometry">
            <mxPoint x="445" y="180" as="sourcePoint" />
            <mxPoint x="440" y="260" as="targetPoint" />
          </mxGeometry>
        </mxCell>
        <mxCell id="6QCg3QeZ5QWLnk-9Zdk--21" style="edgeStyle=orthogonalEdgeStyle;rounded=0;orthogonalLoop=1;jettySize=auto;html=1;exitX=1;exitY=0.5;exitDx=0;exitDy=0;dashed=1;" edge="1" parent="1" source="6QCg3QeZ5QWLnk-9Zdk--15" target="6QCg3QeZ5QWLnk-9Zdk--19">
          <mxGeometry relative="1" as="geometry" />
        </mxCell>
        <mxCell id="6QCg3QeZ5QWLnk-9Zdk--27" style="edgeStyle=orthogonalEdgeStyle;rounded=0;orthogonalLoop=1;jettySize=auto;html=1;exitX=0.5;exitY=1;exitDx=0;exitDy=0;entryX=0.5;entryY=0;entryDx=0;entryDy=0;" edge="1" parent="1" source="6QCg3QeZ5QWLnk-9Zdk--15" target="6QCg3QeZ5QWLnk-9Zdk--24">
          <mxGeometry relative="1" as="geometry" />
        </mxCell>
        <mxCell id="6QCg3QeZ5QWLnk-9Zdk--28" style="edgeStyle=orthogonalEdgeStyle;rounded=0;orthogonalLoop=1;jettySize=auto;html=1;exitX=0.5;exitY=1;exitDx=0;exitDy=0;entryX=0.5;entryY=0;entryDx=0;entryDy=0;" edge="1" parent="1" source="6QCg3QeZ5QWLnk-9Zdk--15" target="6QCg3QeZ5QWLnk-9Zdk--17">
          <mxGeometry relative="1" as="geometry" />
        </mxCell>
        <mxCell id="6QCg3QeZ5QWLnk-9Zdk--15" value="&lt;font style=&quot;font-size: 16px;&quot;&gt;编译&lt;/font&gt;" style="text;html=1;align=center;verticalAlign=middle;whiteSpace=wrap;rounded=0;fillColor=#d5e8d4;strokeColor=#82b366;" vertex="1" parent="1">
          <mxGeometry x="414" y="180" width="60" height="30" as="geometry" />
        </mxCell>
        <mxCell id="6QCg3QeZ5QWLnk-9Zdk--38" value="" style="edgeStyle=orthogonalEdgeStyle;rounded=0;orthogonalLoop=1;jettySize=auto;html=1;" edge="1" parent="1" source="6QCg3QeZ5QWLnk-9Zdk--17" target="6QCg3QeZ5QWLnk-9Zdk--35">
          <mxGeometry relative="1" as="geometry" />
        </mxCell>
        <mxCell id="6QCg3QeZ5QWLnk-9Zdk--17" value="&lt;pre&gt;&lt;font style=&quot;font-size: 13px;&quot; face=&quot;微软雅黑&quot; data-font-src=&quot;https://fonts.googleapis.com/css?family=%E5%BE%AE%E8%BD%AF%E9%9B%85%E9%BB%91&quot;&gt;编译出错&lt;/font&gt;&lt;/pre&gt;" style="text;html=1;align=center;verticalAlign=middle;whiteSpace=wrap;rounded=0;fillColor=#d5e8d4;strokeColor=#82b366;" vertex="1" parent="1">
          <mxGeometry x="460" y="270" width="60" height="30" as="geometry" />
        </mxCell>
        <mxCell id="6QCg3QeZ5QWLnk-9Zdk--33" style="edgeStyle=orthogonalEdgeStyle;rounded=0;orthogonalLoop=1;jettySize=auto;html=1;exitX=1;exitY=0.5;exitDx=0;exitDy=0;" edge="1" parent="1" source="6QCg3QeZ5QWLnk-9Zdk--19" target="6QCg3QeZ5QWLnk-9Zdk--31">
          <mxGeometry relative="1" as="geometry" />
        </mxCell>
        <mxCell id="6QCg3QeZ5QWLnk-9Zdk--19" value="fork()" style="ellipse;whiteSpace=wrap;html=1;fillColor=#d5e8d4;strokeColor=#82b366;" vertex="1" parent="1">
          <mxGeometry x="510" y="175" width="50" height="40" as="geometry" />
        </mxCell>
        <mxCell id="6QCg3QeZ5QWLnk-9Zdk--24" value="&lt;font style=&quot;font-size: 13px;&quot;&gt;编译成功&lt;/font&gt;" style="text;html=1;strokeColor=#82b366;fillColor=#d5e8d4;align=center;verticalAlign=middle;whiteSpace=wrap;rounded=0;" vertex="1" parent="1">
          <mxGeometry x="360" y="270" width="60" height="30" as="geometry" />
        </mxCell>
        <mxCell id="6QCg3QeZ5QWLnk-9Zdk--40" style="edgeStyle=orthogonalEdgeStyle;rounded=0;orthogonalLoop=1;jettySize=auto;html=1;exitX=0.5;exitY=1;exitDx=0;exitDy=0;entryX=0.431;entryY=0.02;entryDx=0;entryDy=0;entryPerimeter=0;" edge="1" parent="1" source="6QCg3QeZ5QWLnk-9Zdk--31" target="6QCg3QeZ5QWLnk-9Zdk--35">
          <mxGeometry relative="1" as="geometry" />
        </mxCell>
        <mxCell id="6QCg3QeZ5QWLnk-9Zdk--31" value="&lt;font style=&quot;font-size: 13px;&quot;&gt;g++&lt;/font&gt;" style="text;html=1;strokeColor=#82b366;fillColor=#d5e8d4;align=center;verticalAlign=middle;whiteSpace=wrap;rounded=0;" vertex="1" parent="1">
          <mxGeometry x="630" y="180" width="60" height="30" as="geometry" />
        </mxCell>
        <mxCell id="6QCg3QeZ5QWLnk-9Zdk--34" value="子进程替换" style="text;html=1;strokeColor=none;fillColor=none;align=center;verticalAlign=middle;whiteSpace=wrap;rounded=0;" vertex="1" parent="1">
          <mxGeometry x="560" y="170" width="70" height="30" as="geometry" />
        </mxCell>
        <mxCell id="6QCg3QeZ5QWLnk-9Zdk--35" value="形成临时文件&lt;br&gt;保存错误、警告信息" style="rounded=1;whiteSpace=wrap;html=1;fillColor=#d5e8d4;strokeColor=#82b366;" vertex="1" parent="1">
          <mxGeometry x="600" y="267.5" width="140" height="35" as="geometry" />
        </mxCell>
        <mxCell id="6QCg3QeZ5QWLnk-9Zdk--45" value="stderr" style="text;html=1;strokeColor=none;fillColor=none;align=center;verticalAlign=middle;whiteSpace=wrap;rounded=0;" vertex="1" parent="1">
          <mxGeometry x="650" y="220" width="60" height="30" as="geometry" />
        </mxCell>
        <mxCell id="6QCg3QeZ5QWLnk-9Zdk--50" value="" style="shape=curlyBracket;whiteSpace=wrap;html=1;rounded=1;flipH=1;labelPosition=right;verticalLabelPosition=middle;align=left;verticalAlign=middle;" vertex="1" parent="1">
          <mxGeometry x="740" y="190" width="20" height="100" as="geometry" />
        </mxCell>
        <mxCell id="6QCg3QeZ5QWLnk-9Zdk--52" value="重定向" style="text;html=1;strokeColor=none;fillColor=none;align=center;verticalAlign=middle;whiteSpace=wrap;rounded=0;" vertex="1" parent="1">
          <mxGeometry x="750" y="225" width="60" height="30" as="geometry" />
        </mxCell>
      </root>
    </mxGraphModel>
  </diagram>
</mxfile>
